PathFileType        4      (X/Y/Z)      C:\Users\pc\Desktop\IMUTRC\Sujet_08\Sujet_08_Tpose.trc         
DataRate	CameraRate	NumFrames	NumMarkers	Units	OrigDataRate	OrigDataStartFrame	OrigNumFrames
60.0	60.0	4	64	mm	60.0	62	163
Frame#	Time	pHipOrigin			pRightASI			pLeftASI			pRightCSI			pLeftCSI			pRightIschialTub			pLeftIschialTub			pSacrum			pL5SpinalProcess			pL3SpinalProcess			pT12SpinalProcess			pIJ			pT4SpinalProcess			pT8SpinalProcess			pPX			pC7SpinalProcess			pTopOfHead			pRightAuricularis			pLeftAuricularis			pBackOfHead			pRightAcromion			pLeftAcromion			pRightArmLatEpicondyle			pRightArmMedEpicondyle			pLeftArmLatEpicondyle			pLeftArmMedEpicondyle			pRightUlnarStyloid			pRightRadialStyloid			pRightOlecranon			pLeftUlnarStyloid			pLeftRadialStyloid			pLeftOlecranon			pRightTopOfHand			pRightPinky			pRightBallHand			pLeftTopOfHand			pLeftPinky			pLeftBallHand			pRightGreaterTrochanter			pRightKneeLatEpicondyle			pRightKneeMedEpicondyle			pRightPatella			pLeftGreaterTrochanter			pLeftKneeLatEpicondyle			pLeftKneeMedEpicondyle			pLeftPatella			pRightTibialTub			pRightLatMalleolus			pRightMedMalleolus			pLeftTibialTub			pLeftLatMalleolus			pLeftMedMalleolus			pRightHeelFoot			pRightFirstMetatarsal			pRightFifthMetatarsal			pRightPivotFoot			pRightHeelCenter			pRightToe			pLeftHeelFoot			pLeftFirstMetatarsal			pLeftFifthMetatarsal			pLeftPivotFoot			pLeftHeelCenter			pLeftToe			
		X1	Y1	Z1	X2	Y2	Z2	X3	Y3	Z3	X4	Y4	Z4	X5	Y5	Z5	X6	Y6	Z6	X7	Y7	Z7	X8	Y8	Z8	X9	Y9	Z9	X10	Y10	Z10	X11	Y11	Z11	X12	Y12	Z12	X13	Y13	Z13	X14	Y14	Z14	X15	Y15	Z15	X16	Y16	Z16	X17	Y17	Z17	X18	Y18	Z18	X19	Y19	Z19	X20	Y20	Z20	X21	Y21	Z21	X22	Y22	Z22	X23	Y23	Z23	X24	Y24	Z24	X25	Y25	Z25	X26	Y26	Z26	X27	Y27	Z27	X28	Y28	Z28	X29	Y29	Z29	X30	Y30	Z30	X31	Y31	Z31	X32	Y32	Z32	X33	Y33	Z33	X34	Y34	Z34	X35	Y35	Z35	X36	Y36	Z36	X37	Y37	Z37	X38	Y38	Z38	X39	Y39	Z39	X40	Y40	Z40	X41	Y41	Z41	X42	Y42	Z42	X43	Y43	Z43	X44	Y44	Z44	X45	Y45	Z45	X46	Y46	Z46	X47	Y47	Z47	X48	Y48	Z48	X49	Y49	Z49	X50	Y50	Z50	X51	Y51	Z51	X52	Y52	Z52	X53	Y53	Z53	X54	Y54	Z54	X55	Y55	Z55	X56	Y56	Z56	X57	Y57	Z57	X58	Y58	Z58	X59	Y59	Z59	X60	Y60	Z60	X61	Y61	Z61	X62	Y62	Z62	X63	Y63	Z63	X64	Y64	Z64	
62	1.017	2471.8456080049473	911.4676300000001	-989.008203654886	2534.5355038719827	1012.9393	-858.8948511979331	2530.6653094527574	1009.7077200000001	-1123.2133091232827	2487.537639073796	1075.95514	-882.3627767370658	2484.3853295701183	1073.2083	-1099.993753957273	2420.890021560513	854.2686300000001	-933.1006527611769	2419.265582559321	852.8144200000002	-1042.0196956439563	2405.7350114404476	929.0797500000001	-988.3098537124168	2436.229772187729	1018.9177200000001	-989.4190329647358	2432.0744137503484	1129.5994	-988.868072256707	2413.7828113445485	1228.97054	-987.2721317434593	2513.3695969210503	1463.58337	-987.8225599498121	2378.4968757995994	1412.52438	-982.9202732983904	2392.1502789673314	1327.85694	-985.000742005332	2536.8660088169654	1348.86222	-990.9630909813872	2371.0441441358375	1467.94601	-988.8998715494738	2438.9198126763704	1714.19254	-983.1095250444562	2387.2458154774035	1627.26299	-925.2281275867325	2469.759540663972	1612.39771	-1030.519349095534	2387.22959344031	1622.5772	-1010.6926151084974	2408.116971641981	1443.06283	-826.6706910652836	2378.626337140628	1434.66072	-1141.0661162329643	2439.6512068686275	1430.9444	-560.8807847414513	2498.1164821390257	1413.65544	-569.8641671642946	2390.4392102753854	1411.71649	-1408.78970357683	2451.040217867484	1401.21385	-1404.2715183656082	2483.1212154610675	1351.93222	-324.1046904659955	2478.285955345144	1402.02174	-311.7647791102621	2468.741502341323	1398.30542	-574.1936731225263	2346.0291788417	1349.99328	-1641.0933638242386	2336.1331233286637	1400.40595	-1647.4464096957008	2423.8992177499463	1381.98593	-1400.5660713153952	2518.403292751229	1340.94485	-128.13751241409582	2507.1373551108836	1315.41535	-217.18072266775212	2500.876391625214	1350.80117	-285.48789483117974	2339.36346386511	1326.40273	-1834.8985771070122	2346.128509489116	1306.85166	-1743.882632124495	2353.894984835996	1346.76169	-1678.2945348595315	2466.980254274862	886.26129	-827.7715102208257	2423.370767776624	491.84674000000007	-825.5894379855465	2428.528654777193	484.89884000000006	-902.1208027723223	2468.9786484498195	486.35305000000005	-863.4973190600849	2463.2239189927036	885.1302400000001	-1150.5111546781159	2430.826756833607	489.7462100000001	-1158.3479322393146	2437.996497897518	481.66726000000006	-1082.1442414979765	2477.5170395011455	484.89884000000006	-1121.7518832662936	2478.0195145598163	451.61355000000003	-859.5189135261535	2392.896671945462	83.85955000000004	-800.9157363268972	2397.041957767057	78.36586000000005	-860.9646688192895	2485.621765642434	448.22039000000007	-1126.5397046283242	2391.215758209452	83.05165000000007	-1186.5210591119776	2396.9408341095805	76.75007000000006	-1126.6624840463683	2357.8719751973804	1.9389500000000515	-839.7999107829628	2516.020044358786	1.615790000000052	-847.2353897514948	2502.4146780722776	-0.16157999999995262	-773.9506058238578	2530.171944025661	0.6463200000000494	-807.6947528128758	2394.383184069506	4.201060000000051	-832.8730192149584	2608.5917608903683	-0.6463199999999515	-793.080125965903	2356.9016946950933	0.16158000000007067	-1154.1317028421818	2515.044751218634	-0.4847399999999299	-1144.5460780762796	2502.2833587814994	3.2315800000000747	-1218.1423389605504	2529.716880038359	1.4542100000000724	-1183.9125640738462	2393.568650164201	3.070000000000071	-1160.3881983228239	2608.241632338952	1.1310500000000734	-1197.459369360975	
63	1.033	2471.8456080049473	911.4676300000001	-989.008203654886	2534.5355038719827	1012.9393	-858.8948511979331	2530.5134739190908	1009.8693000000001	-1123.2685727380413	2487.537639073796	1075.95514	-882.3627767370658	2484.2334940364517	1073.2083	-1100.0490175720315	2421.0418570941797	854.1070600000002	-933.0453891464183	2419.4174180929876	852.8144200000002	-1041.9644320291977	2405.6797478256894	929.0797500000001	-988.1580181787502	2436.229772187729	1018.9177200000001	-989.4190329647358	2432.0744137503484	1129.5994	-988.868072256707	2413.5757121961233	1228.97054	-987.1755598245513	2512.9553986242	1463.58337	-987.6294161119962	2378.0826868996755	1412.52438	-982.7271260403727	2391.8879162041476	1327.85694	-984.7523345527574	2536.603646053782	1348.86222	-990.7146835288125	2370.726517757895	1467.94601	-988.4996285632326	2438.2432610132623	1714.19254	-982.667970333864	2386.928189099461	1627.10141	-924.8278846004912	2468.9864170819565	1612.39771	-1030.2848935333668	2386.553035800477	1622.5772	-1010.2510732150329	2407.7027733451305	1442.90125	-826.4775472274675	2378.3639743774447	1434.66072	-1140.8177087803897	2439.595943253869	1431.10598	-560.7289492077847	2498.1164821390257	1413.97859	-569.8641671642946	2389.9697577607026	1411.87807	-1408.4447207851458	2450.474193433893	1401.37542	-1404.133634722349	2483.424886528401	1352.25538	-323.9941632364782	2478.5343627977186	1402.3449	-311.5024163470782	2468.6862387265646	1398.467	-574.0418375888597	2345.61498054485	1350.31643	-1640.9002199864226	2335.5671023152745	1400.72911	-1647.3085354493678	2423.4850228732976	1382.14751	-1400.3729368745057	2518.8587993522287	1341.42958	-127.97172156982018	2507.5928617118834	1315.73851	-217.01493182347636	2501.124799077789	1351.12433	-285.22553206799597	2338.797430034593	1326.88747	-1834.760696883954	2345.562475658599	1307.3364	-1743.7447519014381	2353.328951005479	1347.08485	-1678.1566546364736	2466.980254274862	886.26129	-827.7715102208257	2423.4260313913824	491.84674000000007	-825.7412735192131	2428.528654777193	484.89884000000006	-902.1208027723223	2468.9786484498195	486.35305000000005	-863.4973190600849	2463.2239189927036	885.1302400000001	-1150.5111546781159	2430.826756833607	489.7462100000001	-1158.3479322393146	2437.996497897518	481.66726000000006	-1082.1442414979765	2477.5170395011455	484.89884000000006	-1121.7518832662936	2478.0195145598163	451.61355000000003	-859.5189135261535	2392.896671945462	83.85955000000004	-800.9157363268972	2397.041957767057	78.36586000000005	-860.9646688192895	2485.414666494009	448.22039000000007	-1126.443132709416	2391.1604945946933	83.05165000000007	-1186.3692235783108	2396.885570494822	76.75007000000006	-1126.5106485127017	2357.8719751973804	1.7773700000000514	-839.7999107829628	2516.020044358786	1.615790000000052	-847.2353897514948	2502.4146780722776	-0.16157999999995262	-773.9506058238578	2530.171944025661	0.6463200000000494	-807.6947528128758	2394.383184069506	4.201060000000051	-832.8730192149584	2608.5917608903683	-0.6463199999999515	-793.080125965903	2356.9016946950933	0.16158000000007067	-1154.1317028421818	2515.044751218634	-0.4847399999999299	-1144.5460780762796	2502.2833587814994	3.2315800000000747	-1218.1423389605504	2529.716880038359	1.4542100000000724	-1183.9125640738462	2393.568650164201	3.070000000000071	-1160.3881983228239	2608.241632338952	1.1310500000000734	-1197.459369360975	
64	1.05	2471.8456080049473	911.4676300000001	-989.008203654886	2534.5355038719827	1013.10088	-858.8948511979331	2530.5134739190908	1009.8693000000001	-1123.2685727380413	2487.4823754590375	1075.95514	-882.2109412033992	2484.178230421693	1073.2083	-1099.897182038365	2421.0418570941797	854.1070600000002	-933.0453891464183	2419.4174180929876	852.8144200000002	-1041.9644320291977	2405.6797478256894	929.0797500000001	-988.1580181787502	2436.0226730393038	1018.9177200000001	-989.3224610458278	2431.8673146019237	1129.5994	-988.7715003377989	2413.368613047698	1228.97054	-987.0789879056434	2512.5412037475508	1463.58337	-987.4362816711065	2377.6132249880666	1412.3628	-982.3821466688903	2391.5289815220563	1327.69536	-984.7110262486078	2536.2447113716903	1348.86222	-990.673375224663	2370.257059266488	1467.78443	-988.1546585886762	2437.470131454522	1714.03096	-982.4335275888249	2386.403463573094	1626.93983	-924.331069695342	2468.268547717773	1612.39771	-1030.202276925068	2385.724648603703	1622.41562	-1009.8647821191995	2407.4404105819467	1442.73967	-826.229139774893	2377.9497760805943	1434.8223	-1140.6245649425737	2439.5406796391103	1431.26756	-560.5771136741181	2498.061218524267	1414.30175	-569.712331630628	2389.4037239301856	1412.03964	-1408.3068405620884	2450.0599985572444	1401.537	-1403.9405002814592	2483.6732845840497	1352.74012	-323.7318038934961	2478.6861983313856	1402.82964	-311.4471527323195	2468.6309785320072	1398.79016	-573.8900114521194	2344.8418475659078	1350.63959	-1640.6657678444572	2334.945804869999	1401.05227	-1647.0188196926438	2422.9189984397062	1382.14751	-1400.2350532312462	2519.314305953229	1342.0759	-127.80593072554441	2508.048368312883	1316.38482	-216.8491409792007	2501.428460748196	1351.60907	-285.11500825868023	2338.024300475852	1327.3722	-1834.5262541389152	2344.844609714617	1307.65955	-1743.6621446900647	2352.5558274234636	1347.40801	-1677.9221990743067	2467.132080411603	886.26129	-827.7162500262685	2423.4260313913824	491.84674000000007	-825.7412735192131	2428.3768192435264	484.89884000000006	-902.1760663870809	2468.9786484498195	486.35305000000005	-863.4973190600849	2463.2239189927036	885.1302400000001	-1150.5111546781159	2430.7714932188483	489.7462100000001	-1158.196096705648	2437.996497897518	481.66726000000006	-1082.1442414979765	2477.5170395011455	484.89884000000006	-1121.7518832662936	2478.0195145598163	451.61355000000003	-859.5189135261535	2392.896671945462	83.85955000000004	-800.9157363268972	2397.041957767057	78.20428000000005	-860.9646688192895	2485.414666494009	448.22039000000007	-1126.443132709416	2391.1604945946933	83.05165000000007	-1186.3692235783108	2396.885570494822	76.75007000000006	-1126.5106485127017	2357.8719751973804	1.7773700000000514	-839.7999107829628	2516.020044358786	1.615790000000052	-847.2353897514948	2502.4146780722776	-0.16157999999995262	-773.9506058238578	2530.171944025661	0.6463200000000494	-807.6947528128758	2394.383184069506	4.201060000000051	-832.8730192149584	2608.5917608903683	-0.6463199999999515	-793.080125965903	2356.9016946950933	0.16158000000007067	-1154.1317028421818	2515.044751218634	-0.4847399999999299	-1144.5460780762796	2502.2833587814994	3.2315800000000747	-1218.1423389605504	2529.716880038359	1.4542100000000724	-1183.9125640738462	2393.568650164201	3.070000000000071	-1160.3881983228239	2608.241632338952	1.1310500000000734	-1197.459369360975	
65	1.067	2471.9974435386143	911.4676300000001	-988.9529400401274	2534.383668338316	1013.10088	-858.9501148126917	2530.306374770666	1009.8693000000001	-1123.1720008191332	2487.3305399253704	1075.95514	-882.2662048181578	2484.0263948880265	1073.2083	-1099.9524456531235	2421.1936926278463	854.1070600000002	-932.9901255316597	2419.4174180929876	852.8144200000002	-1041.9644320291977	2405.6797478256894	928.9181700000001	-988.1580181787502	2436.0226730393038	1018.9177200000001	-989.3224610458278	2431.6602188736997	1129.5994	-988.6749378158172	2413.161513899273	1228.80896	-986.9824159867354	2512.1270054507004	1463.58337	-987.2431378332902	2377.350862224883	1412.20122	-982.1337392163153	2391.2666221790737	1327.69536	-984.4626281929595	2535.83051307484	1349.0238	-990.480231386847	2369.635761821213	1467.62285	-987.8649428319521	2436.7522620903383	1714.03096	-982.3509109805261	2386.1411042301115	1626.93983	-924.0826716396937	2467.3988462401244	1612.39771	-1030.1749333284538	2385.04809096387	1622.41562	-1009.4232402257351	2407.026215705298	1442.73967	-826.0360053340031	2377.4803175891866	1434.8223	-1140.2795949680171	2439.333589887611	1431.59071	-560.4805383350088	2498.0059549095085	1414.46333	-569.5604960969614	2388.8376900996686	1412.20122	-1408.168960339031	2449.438701111969	1401.537	-1403.6507845247352	2483.7698565029573	1353.22486	-323.5247047450709	2478.7827702502937	1403.31437	-311.24005358389434	2468.5757149172487	1398.95174	-573.7381759184526	2344.2758231323173	1350.80117	-1640.527884201198	2334.172671891057	1401.21385	-1646.7843675506783	2422.3529646091897	1382.30909	-1400.0971730081887	2519.6179676236356	1342.72222	-127.69540691622879	2508.296775765458	1316.86956	-216.58677821601694	2501.5250360873056	1352.25538	-284.90791850718114	2337.2511768938366	1327.53378	-1834.2917985767483	2344.0714861326014	1307.82113	-1743.4276891278982	2351.934529978188	1347.56959	-1677.6324833175825	2467.283915945269	886.26129	-827.66098641151	2423.5778669250494	491.84674000000007	-825.6860099044544	2428.3768192435264	484.89884000000006	-902.1760663870809	2468.9786484498195	486.35305000000005	-863.4973190600849	2463.168655377945	885.1302400000001	-1150.3593191444493	2430.6196576851817	489.7462100000001	-1158.2513603204065	2437.996497897518	481.66726000000006	-1082.1442414979765	2477.5170395011455	484.89884000000006	-1121.7518832662936	2478.0195145598163	451.4519700000001	-859.5189135261535	2392.896671945462	83.85955000000004	-800.9157363268972	2396.8901222333902	78.20428000000005	-861.0199324340481	2485.414666494009	448.22039000000007	-1126.443132709416	2391.1604945946933	83.05165000000007	-1186.3692235783108	2396.885570494822	76.75007000000006	-1126.5106485127017	2357.8719751973804	1.7773700000000514	-839.7999107829628	2516.020044358786	1.615790000000052	-847.2353897514948	2502.4146780722776	-0.16157999999995262	-773.9506058238578	2530.171944025661	0.6463200000000494	-807.6947528128758	2394.383184069506	4.201060000000051	-832.8730192149584	2608.5917608903683	-0.6463199999999515	-793.080125965903	2356.9016946950933	0.16158000000007067	-1154.1317028421818	2515.044751218634	-0.4847399999999299	-1144.5460780762796	2502.228095166741	3.2315800000000747	-1217.9905034268836	2529.716880038359	1.4542100000000724	-1183.9125640738462	2393.568650164201	3.070000000000071	-1160.3881983228239	2608.241632338952	1.2926300000000732	-1197.459369360975	
